<svg xmlns="http://www.w3.org/2000/svg" xmlns:xlink="http://www.w3.org/1999/xlink" width="100" zoomAndPan="magnify" viewBox="0 0 75 74.999997" height="100" preserveAspectRatio="xMidYMid meet" version="1.0"><defs><g/></defs><g fill="#ff2a84" fill-opacity="1"><g transform="translate(1.23407, 51.179374)"><g><path d="M 9.6875 -27.015625 L 16.625 -7.421875 L 23.53125 -27.015625 L 30.84375 -27.015625 L 30.84375 0 L 25.25 0 L 25.25 -7.390625 L 25.8125 -20.125 L 18.515625 0 L 14.703125 0 L 7.421875 -20.109375 L 7.984375 -7.390625 L 7.984375 0 L 2.40625 0 L 2.40625 -27.015625 Z M 9.6875 -27.015625 "/></g></g></g><g fill="#ff2a84" fill-opacity="1"><g transform="translate(34.514334, 51.179374)"><g><path d="M 18.671875 -11.046875 L 7.984375 -11.046875 L 7.984375 0 L 2.40625 0 L 2.40625 -27.015625 L 20 -27.015625 L 20 -22.5 L 7.984375 -22.5 L 7.984375 -15.53125 L 18.671875 -15.53125 Z M 18.671875 -11.046875 "/></g></g></g><g fill="#ff2a84" fill-opacity="1"><g transform="translate(55.328412, 51.179374)"><g><path d="M 7.296875 -15.890625 L 10.15625 -15.890625 C 11.507812 -15.890625 12.515625 -16.226562 13.171875 -16.90625 C 13.828125 -17.582031 14.15625 -18.484375 14.15625 -19.609375 C 14.15625 -20.703125 13.828125 -21.550781 13.171875 -22.15625 C 12.523438 -22.757812 11.632812 -23.0625 10.5 -23.0625 C 9.476562 -23.0625 8.617188 -22.78125 7.921875 -22.21875 C 7.234375 -21.65625 6.890625 -20.921875 6.890625 -20.015625 L 1.515625 -20.015625 C 1.515625 -21.429688 1.894531 -22.695312 2.65625 -23.8125 C 3.414062 -24.9375 4.476562 -25.8125 5.84375 -26.4375 C 7.21875 -27.070312 8.726562 -27.390625 10.375 -27.390625 C 13.226562 -27.390625 15.460938 -26.703125 17.078125 -25.328125 C 18.703125 -23.960938 19.515625 -22.082031 19.515625 -19.6875 C 19.515625 -18.445312 19.132812 -17.304688 18.375 -16.265625 C 17.625 -15.234375 16.640625 -14.4375 15.421875 -13.875 C 16.941406 -13.332031 18.078125 -12.515625 18.828125 -11.421875 C 19.578125 -10.335938 19.953125 -9.054688 19.953125 -7.578125 C 19.953125 -5.171875 19.078125 -3.242188 17.328125 -1.796875 C 15.578125 -0.347656 13.257812 0.375 10.375 0.375 C 7.675781 0.375 5.46875 -0.332031 3.75 -1.75 C 2.039062 -3.175781 1.1875 -5.0625 1.1875 -7.40625 L 6.546875 -7.40625 C 6.546875 -6.382812 6.925781 -5.550781 7.6875 -4.90625 C 8.445312 -4.269531 9.382812 -3.953125 10.5 -3.953125 C 11.769531 -3.953125 12.765625 -4.285156 13.484375 -4.953125 C 14.210938 -5.628906 14.578125 -6.523438 14.578125 -7.640625 C 14.578125 -10.335938 13.09375 -11.6875 10.125 -11.6875 L 7.296875 -11.6875 Z M 7.296875 -15.890625 "/></g></g></g><g fill="#a11cf1" fill-opacity="1"><g transform="translate(-0.445309, 49.499995)"><g><path d="M 9.6875 -27.015625 L 16.625 -7.421875 L 23.53125 -27.015625 L 30.84375 -27.015625 L 30.84375 0 L 25.25 0 L 25.25 -7.390625 L 25.8125 -20.125 L 18.515625 0 L 14.703125 0 L 7.421875 -20.109375 L 7.984375 -7.390625 L 7.984375 0 L 2.40625 0 L 2.40625 -27.015625 Z M 9.6875 -27.015625 "/></g></g></g><g fill="#a11cf1" fill-opacity="1"><g transform="translate(32.834954, 49.499995)"><g><path d="M 18.671875 -11.046875 L 7.984375 -11.046875 L 7.984375 0 L 2.40625 0 L 2.40625 -27.015625 L 20 -27.015625 L 20 -22.5 L 7.984375 -22.5 L 7.984375 -15.53125 L 18.671875 -15.53125 Z M 18.671875 -11.046875 "/></g></g></g><g fill="#a11cf1" fill-opacity="1"><g transform="translate(53.649032, 49.499995)"><g><path d="M 7.296875 -15.890625 L 10.15625 -15.890625 C 11.507812 -15.890625 12.515625 -16.226562 13.171875 -16.90625 C 13.828125 -17.582031 14.15625 -18.484375 14.15625 -19.609375 C 14.15625 -20.703125 13.828125 -21.550781 13.171875 -22.15625 C 12.523438 -22.757812 11.632812 -23.0625 10.5 -23.0625 C 9.476562 -23.0625 8.617188 -22.78125 7.921875 -22.21875 C 7.234375 -21.65625 6.890625 -20.921875 6.890625 -20.015625 L 1.515625 -20.015625 C 1.515625 -21.429688 1.894531 -22.695312 2.65625 -23.8125 C 3.414062 -24.9375 4.476562 -25.8125 5.84375 -26.4375 C 7.21875 -27.070312 8.726562 -27.390625 10.375 -27.390625 C 13.226562 -27.390625 15.460938 -26.703125 17.078125 -25.328125 C 18.703125 -23.960938 19.515625 -22.082031 19.515625 -19.6875 C 19.515625 -18.445312 19.132812 -17.304688 18.375 -16.265625 C 17.625 -15.234375 16.640625 -14.4375 15.421875 -13.875 C 16.941406 -13.332031 18.078125 -12.515625 18.828125 -11.421875 C 19.578125 -10.335938 19.953125 -9.054688 19.953125 -7.578125 C 19.953125 -5.171875 19.078125 -3.242188 17.328125 -1.796875 C 15.578125 -0.347656 13.257812 0.375 10.375 0.375 C 7.675781 0.375 5.46875 -0.332031 3.75 -1.75 C 2.039062 -3.175781 1.1875 -5.0625 1.1875 -7.40625 L 6.546875 -7.40625 C 6.546875 -6.382812 6.925781 -5.550781 7.6875 -4.90625 C 8.445312 -4.269531 9.382812 -3.953125 10.5 -3.953125 C 11.769531 -3.953125 12.765625 -4.285156 13.484375 -4.953125 C 14.210938 -5.628906 14.578125 -6.523438 14.578125 -7.640625 C 14.578125 -10.335938 13.09375 -11.6875 10.125 -11.6875 L 7.296875 -11.6875 Z M 7.296875 -15.890625 "/></g></g></g></svg>