<svg xmlns="http://www.w3.org/2000/svg" xmlns:xlink="http://www.w3.org/1999/xlink" width="500" zoomAndPan="magnify" viewBox="0 0 375 374.999991" height="500" preserveAspectRatio="xMidYMid meet" version="1.0"><defs><g/></defs><g fill="#1a1e19" fill-opacity="1"><g transform="translate(11.376921, 94.776644)"><g><path d="M 10.203125 -28.4375 L 17.5 -7.8125 L 24.765625 -28.4375 L 32.46875 -28.4375 L 32.46875 0 L 26.578125 0 L 26.578125 -7.78125 L 27.171875 -21.1875 L 19.5 0 L 15.46875 0 L 7.8125 -21.171875 L 8.40625 -7.78125 L 8.40625 0 L 2.546875 0 L 2.546875 -28.4375 Z M 10.203125 -28.4375 "/></g></g></g><g fill="#1a1e19" fill-opacity="1"><g transform="translate(46.412559, 94.776644)"><g><path d="M 24.0625 -28.4375 L 24.0625 -9.703125 C 24.0625 -6.597656 23.085938 -4.140625 21.140625 -2.328125 C 19.191406 -0.515625 16.535156 0.390625 13.171875 0.390625 C 9.847656 0.390625 7.207031 -0.488281 5.25 -2.25 C 3.300781 -4.007812 2.304688 -6.425781 2.265625 -9.5 L 2.265625 -28.4375 L 8.125 -28.4375 L 8.125 -9.671875 C 8.125 -7.804688 8.566406 -6.445312 9.453125 -5.59375 C 10.347656 -4.738281 11.585938 -4.3125 13.171875 -4.3125 C 16.460938 -4.3125 18.132812 -6.046875 18.1875 -9.515625 L 18.1875 -28.4375 Z M 24.0625 -28.4375 "/></g></g></g><g fill="#1a1e19" fill-opacity="1"><g transform="translate(72.738112, 94.776644)"><g><path d="M 17.28125 -7.46875 C 17.28125 -8.570312 16.890625 -9.421875 16.109375 -10.015625 C 15.328125 -10.609375 13.921875 -11.234375 11.890625 -11.890625 C 9.859375 -12.546875 8.253906 -13.191406 7.078125 -13.828125 C 3.847656 -15.578125 2.234375 -17.925781 2.234375 -20.875 C 2.234375 -22.414062 2.664062 -23.785156 3.53125 -24.984375 C 4.394531 -26.191406 5.632812 -27.132812 7.25 -27.8125 C 8.875 -28.488281 10.695312 -28.828125 12.71875 -28.828125 C 14.75 -28.828125 16.554688 -28.457031 18.140625 -27.71875 C 19.734375 -26.988281 20.96875 -25.953125 21.84375 -24.609375 C 22.726562 -23.265625 23.171875 -21.742188 23.171875 -20.046875 L 17.3125 -20.046875 C 17.3125 -21.347656 16.898438 -22.359375 16.078125 -23.078125 C 15.253906 -23.796875 14.101562 -24.15625 12.625 -24.15625 C 11.1875 -24.15625 10.070312 -23.851562 9.28125 -23.25 C 8.488281 -22.644531 8.09375 -21.847656 8.09375 -20.859375 C 8.09375 -19.929688 8.554688 -19.15625 9.484375 -18.53125 C 10.410156 -17.90625 11.78125 -17.320312 13.59375 -16.78125 C 16.925781 -15.78125 19.351562 -14.535156 20.875 -13.046875 C 22.40625 -11.566406 23.171875 -9.71875 23.171875 -7.5 C 23.171875 -5.039062 22.238281 -3.109375 20.375 -1.703125 C 18.507812 -0.304688 16.003906 0.390625 12.859375 0.390625 C 10.671875 0.390625 8.675781 -0.0078125 6.875 -0.8125 C 5.082031 -1.613281 3.710938 -2.707031 2.765625 -4.09375 C 1.816406 -5.488281 1.34375 -7.109375 1.34375 -8.953125 L 7.234375 -8.953125 C 7.234375 -5.804688 9.109375 -4.234375 12.859375 -4.234375 C 14.242188 -4.234375 15.328125 -4.515625 16.109375 -5.078125 C 16.890625 -5.648438 17.28125 -6.445312 17.28125 -7.46875 Z M 17.28125 -7.46875 "/></g></g></g><g fill="#1a1e19" fill-opacity="1"><g transform="translate(97.325558, 94.776644)"><g><path d="M 8.765625 0 L 2.90625 0 L 2.90625 -28.4375 L 8.765625 -28.4375 Z M 8.765625 0 "/></g></g></g><g fill="#1a1e19" fill-opacity="1"><g transform="translate(108.984581, 94.776644)"><g><path d="M 24.859375 -9.46875 C 24.640625 -6.414062 23.507812 -4.007812 21.46875 -2.25 C 19.4375 -0.488281 16.753906 0.390625 13.421875 0.390625 C 9.773438 0.390625 6.90625 -0.832031 4.8125 -3.28125 C 2.726562 -5.738281 1.6875 -9.113281 1.6875 -13.40625 L 1.6875 -15.140625 C 1.6875 -17.867188 2.164062 -20.273438 3.125 -22.359375 C 4.09375 -24.441406 5.46875 -26.039062 7.25 -27.15625 C 9.039062 -28.269531 11.125 -28.828125 13.5 -28.828125 C 16.78125 -28.828125 19.421875 -27.945312 21.421875 -26.1875 C 23.429688 -24.4375 24.59375 -21.972656 24.90625 -18.796875 L 19.046875 -18.796875 C 18.898438 -20.628906 18.382812 -21.957031 17.5 -22.78125 C 16.625 -23.613281 15.289062 -24.03125 13.5 -24.03125 C 11.539062 -24.03125 10.078125 -23.328125 9.109375 -21.921875 C 8.140625 -20.523438 7.644531 -18.351562 7.625 -15.40625 L 7.625 -13.265625 C 7.625 -10.191406 8.085938 -7.941406 9.015625 -6.515625 C 9.941406 -5.097656 11.410156 -4.390625 13.421875 -4.390625 C 15.234375 -4.390625 16.582031 -4.800781 17.46875 -5.625 C 18.363281 -6.457031 18.875 -7.738281 19 -9.46875 Z M 24.859375 -9.46875 "/></g></g></g><g fill="#1a1e19" fill-opacity="1"><g transform="translate(135.153899, 94.776644)"><g><path d="M 2.46875 -2.78125 C 2.46875 -3.675781 2.769531 -4.398438 3.375 -4.953125 C 3.976562 -5.515625 4.734375 -5.796875 5.640625 -5.796875 C 6.566406 -5.796875 7.332031 -5.515625 7.9375 -4.953125 C 8.539062 -4.398438 8.84375 -3.675781 8.84375 -2.78125 C 8.84375 -1.894531 8.539062 -1.171875 7.9375 -0.609375 C 7.34375 -0.0546875 6.578125 0.21875 5.640625 0.21875 C 4.722656 0.21875 3.960938 -0.0546875 3.359375 -0.609375 C 2.765625 -1.171875 2.46875 -1.894531 2.46875 -2.78125 Z M 2.46875 -2.78125 "/></g></g></g><path stroke-linecap="butt" transform="matrix(0.75, 0, 0, 0.75, 17.473159, 96.198627)" fill="none" stroke-linejoin="miter" d="M 118.462879 72.26121 L 76.900376 72.26121 L 76.900376 116.000796 L 63.837875 116.000796 L 63.837875 16.959123 L 125.197254 16.959123 L 125.197254 27.709124 L 76.900376 27.709124 L 76.900376 61.584126 L 118.462879 61.584126 Z M 176.858716 116.000796 L 163.796215 116.000796 L 163.796215 16.959123 L 176.858716 16.959123 Z M 255.530596 98.651837 L 283.827473 16.959123 L 298.108724 16.959123 L 261.379555 116.000796 L 249.817054 116.000796 L 213.150385 16.959123 L 227.369136 16.959123 Z M 389.363938 70.219543 L 346.436852 70.219543 L 346.436852 105.318504 L 396.301438 105.318504 L 396.301438 116.000796 L 333.379559 116.000796 L 333.379559 16.959123 L 395.619147 16.959123 L 395.619147 27.709124 L 346.436852 27.709124 L 346.436852 59.542459 L 389.363938 59.542459 Z M 389.363938 70.219543 " stroke="#1a1e19" stroke-width="10.448625" stroke-opacity="1" stroke-miterlimit="4"/><path stroke-linecap="butt" transform="matrix(0.75, 0, 0, 0.75, 17.473159, 96.198627)" fill="none" stroke-linejoin="miter" d="M 26.546206 199.360177 L 35.999331 199.360177 C 41.94204 199.266427 46.608707 197.703927 50.009749 194.66226 C 53.410791 191.625801 55.113916 187.521634 55.113916 182.349759 C 55.113916 170.740383 49.332666 164.938299 37.770165 164.938299 C 32.327456 164.938299 27.983706 166.490383 24.744122 169.599758 C 21.499331 172.703925 19.879539 176.818509 19.879539 181.943509 L 7.296205 181.943509 C 7.296205 174.099758 10.160788 167.578925 15.900372 162.386216 C 21.634747 157.193507 28.926414 154.599757 37.770165 154.599757 C 47.108707 154.599757 54.431624 157.068507 59.738916 162.011216 C 65.046208 166.953925 67.69725 173.828925 67.69725 182.625801 C 67.69725 186.933093 66.301417 191.104968 63.514958 195.141426 C 60.723291 199.177885 56.926416 202.19351 52.119124 204.188302 C 57.561833 205.91226 61.770166 208.766427 64.738917 212.756011 C 67.707667 216.750803 69.192042 221.625803 69.192042 227.381012 C 69.192042 236.271637 66.291 243.323721 60.488916 248.537263 C 54.681624 253.750805 47.134749 256.36018 37.837873 256.36018 C 28.540998 256.36018 20.978497 253.844555 15.150372 248.808097 C 9.322246 243.776846 6.410788 237.131013 6.410788 228.881012 L 19.06183 228.881012 C 19.06183 234.094554 20.764955 238.266429 24.165997 241.396638 C 27.567039 244.526846 32.124331 246.089346 37.837873 246.089346 C 43.91079 246.089346 48.561832 244.500805 51.780582 241.328929 C 54.999333 238.151846 56.608708 233.594554 56.608708 227.657054 C 56.608708 221.896637 54.843083 217.474761 51.306624 214.391428 C 47.764957 211.308094 42.665999 209.719552 35.999331 209.631011 L 26.546206 209.631011 Z M 144.530589 237.651846 L 172.827465 155.959132 L 187.108716 155.959132 L 150.379547 255.000805 L 138.817047 255.000805 L 102.150377 155.959132 L 116.369128 155.959132 Z M 237.410803 199.360177 L 246.863929 199.360177 C 252.806637 199.266427 257.478513 197.703927 260.879555 194.66226 C 264.280596 191.625801 265.978513 187.521634 265.978513 182.349759 C 265.978513 170.740383 260.197263 164.938299 248.634762 164.938299 C 243.192053 164.938299 238.853511 166.490383 235.60872 169.599758 C 232.363928 172.703925 230.744136 176.818509 230.744136 181.943509 L 218.160802 181.943509 C 218.160802 174.099758 221.030594 167.578925 226.764969 162.386216 C 232.504553 157.193507 239.791012 154.599757 248.634762 154.599757 C 257.978513 154.599757 265.30143 157.068507 270.608722 162.011216 C 275.910806 166.953925 278.567056 173.828925 278.567056 182.625801 C 278.567056 186.933093 277.171222 191.104968 274.379555 195.141426 C 271.593097 199.177885 267.796222 202.19351 262.98893 204.188302 C 268.431638 205.91226 272.634764 208.766427 275.603514 212.756011 C 278.577472 216.750803 280.061847 221.625803 280.061847 227.381012 C 280.061847 236.271637 277.160806 243.323721 271.353514 248.537263 C 265.55143 253.750805 257.999346 256.36018 248.70247 256.36018 C 239.405595 256.36018 231.843094 253.844555 226.014969 248.808097 C 220.192052 243.776846 217.275385 237.131013 217.275385 228.881012 L 229.926428 228.881012 C 229.926428 234.094554 231.629553 238.266429 235.030595 241.396638 C 238.431636 244.526846 242.988928 246.089346 248.70247 246.089346 C 254.780596 246.089346 259.426429 244.500805 262.64518 241.328929 C 265.869138 238.151846 267.478513 233.594554 267.478513 227.657054 C 267.478513 221.896637 265.70768 217.474761 262.171221 214.391428 C 258.634763 211.308094 253.530596 209.719552 246.863929 209.631011 L 237.410803 209.631011 Z M 358.931644 214.933094 L 335.671226 214.933094 L 335.671226 255.000805 L 322.541017 255.000805 L 322.541017 155.959132 L 355.327477 155.959132 C 366.483728 155.959132 375.067062 158.500799 381.072271 163.578924 C 387.082688 168.65705 390.087896 176.047675 390.087896 185.750801 C 390.087896 191.922676 388.42123 197.292468 385.087896 201.875802 C 381.754562 206.453927 377.119146 209.881011 371.176437 212.146636 L 394.442063 254.183097 L 394.442063 255.000805 L 380.426437 255.000805 Z M 335.671226 204.25601 L 355.733727 204.25601 C 362.218103 204.25601 367.379562 202.578927 371.212895 199.219552 C 375.04102 195.865385 376.957687 191.375801 376.957687 185.750801 C 376.957687 179.631009 375.13477 174.9383 371.483728 171.672675 C 367.832687 168.40705 362.561853 166.7508 355.666019 166.709133 L 335.671226 166.709133 Z M 335.671226 204.25601 " stroke="#1a1e19" stroke-width="10.448625" stroke-opacity="1" stroke-miterlimit="4"/><g fill="#a11cf1" fill-opacity="1"><g transform="translate(56.730969, 183.198622)"><g><path d="M 49.59375 -32.796875 L 18.421875 -32.796875 L 18.421875 0 L 8.625 0 L 8.625 -74.28125 L 54.640625 -74.28125 L 54.640625 -66.21875 L 18.421875 -66.21875 L 18.421875 -40.8125 L 49.59375 -40.8125 Z M 49.59375 -32.796875 "/></g></g></g><g fill="#a11cf1" fill-opacity="1"><g transform="translate(130.985422, 183.198622)"><g><path d="M 19.125 0 L 9.34375 0 L 9.34375 -74.28125 L 19.125 -74.28125 Z M 19.125 0 "/></g></g></g><g fill="#a11cf1" fill-opacity="1"><g transform="translate(175.90796, 183.198622)"><g><path d="M 33.21875 -13.015625 L 54.4375 -74.28125 L 65.15625 -74.28125 L 37.59375 0 L 28.921875 0 L 1.421875 -74.28125 L 12.09375 -74.28125 Z M 33.21875 -13.015625 "/></g></g></g><g fill="#a11cf1" fill-opacity="1"><g transform="translate(258.885481, 183.198622)"><g><path d="M 50.609375 -34.328125 L 18.421875 -34.328125 L 18.421875 -8.015625 L 55.8125 -8.015625 L 55.8125 0 L 8.625 0 L 8.625 -74.28125 L 55.296875 -74.28125 L 55.296875 -66.21875 L 18.421875 -66.21875 L 18.421875 -42.34375 L 50.609375 -42.34375 Z M 50.609375 -34.328125 "/></g></g></g><g fill="#ff2a84" fill-opacity="1"><g transform="translate(17.484878, 287.448615)"><g><path d="M 19.890625 -41.734375 L 26.984375 -41.734375 C 31.441406 -41.796875 34.945312 -42.96875 37.5 -45.25 C 40.050781 -47.53125 41.328125 -50.609375 41.328125 -54.484375 C 41.328125 -63.191406 36.988281 -67.546875 28.3125 -67.546875 C 24.226562 -67.546875 20.96875 -66.378906 18.53125 -64.046875 C 16.101562 -61.722656 14.890625 -58.640625 14.890625 -54.796875 L 5.453125 -54.796875 C 5.453125 -60.679688 7.601562 -65.566406 11.90625 -69.453125 C 16.207031 -73.347656 21.675781 -75.296875 28.3125 -75.296875 C 35.320312 -75.296875 40.816406 -73.441406 44.796875 -69.734375 C 48.773438 -66.035156 50.765625 -60.882812 50.765625 -54.28125 C 50.765625 -51.050781 49.71875 -47.921875 47.625 -44.890625 C 45.53125 -41.867188 42.679688 -39.609375 39.078125 -38.109375 C 43.160156 -36.816406 46.316406 -34.671875 48.546875 -31.671875 C 50.773438 -28.679688 51.890625 -25.03125 51.890625 -20.71875 C 51.890625 -14.050781 49.710938 -8.757812 45.359375 -4.84375 C 41.003906 -0.9375 35.335938 1.015625 28.359375 1.015625 C 21.390625 1.015625 15.71875 -0.867188 11.34375 -4.640625 C 6.976562 -8.421875 4.796875 -13.40625 4.796875 -19.59375 L 14.28125 -19.59375 C 14.28125 -15.675781 15.554688 -12.546875 18.109375 -10.203125 C 20.660156 -7.859375 24.078125 -6.6875 28.359375 -6.6875 C 32.921875 -6.6875 36.410156 -7.875 38.828125 -10.25 C 41.242188 -12.632812 42.453125 -16.054688 42.453125 -20.515625 C 42.453125 -24.828125 41.125 -28.140625 38.46875 -30.453125 C 35.8125 -32.765625 31.984375 -33.957031 26.984375 -34.03125 L 19.890625 -34.03125 Z M 19.890625 -41.734375 "/></g></g></g><g fill="#ff2a84" fill-opacity="1"><g transform="translate(92.657547, 287.448615)"><g><path d="M 33.21875 -13.015625 L 54.4375 -74.28125 L 65.15625 -74.28125 L 37.59375 0 L 28.921875 0 L 1.421875 -74.28125 L 12.09375 -74.28125 Z M 33.21875 -13.015625 "/></g></g></g><g fill="#ff2a84" fill-opacity="1"><g transform="translate(175.635064, 287.448615)"><g><path d="M 19.890625 -41.734375 L 26.984375 -41.734375 C 31.441406 -41.796875 34.945312 -42.96875 37.5 -45.25 C 40.050781 -47.53125 41.328125 -50.609375 41.328125 -54.484375 C 41.328125 -63.191406 36.988281 -67.546875 28.3125 -67.546875 C 24.226562 -67.546875 20.96875 -66.378906 18.53125 -64.046875 C 16.101562 -61.722656 14.890625 -58.640625 14.890625 -54.796875 L 5.453125 -54.796875 C 5.453125 -60.679688 7.601562 -65.566406 11.90625 -69.453125 C 16.207031 -73.347656 21.675781 -75.296875 28.3125 -75.296875 C 35.320312 -75.296875 40.816406 -73.441406 44.796875 -69.734375 C 48.773438 -66.035156 50.765625 -60.882812 50.765625 -54.28125 C 50.765625 -51.050781 49.71875 -47.921875 47.625 -44.890625 C 45.53125 -41.867188 42.679688 -39.609375 39.078125 -38.109375 C 43.160156 -36.816406 46.316406 -34.671875 48.546875 -31.671875 C 50.773438 -28.679688 51.890625 -25.03125 51.890625 -20.71875 C 51.890625 -14.050781 49.710938 -8.757812 45.359375 -4.84375 C 41.003906 -0.9375 35.335938 1.015625 28.359375 1.015625 C 21.390625 1.015625 15.71875 -0.867188 11.34375 -4.640625 C 6.976562 -8.421875 4.796875 -13.40625 4.796875 -19.59375 L 14.28125 -19.59375 C 14.28125 -15.675781 15.554688 -12.546875 18.109375 -10.203125 C 20.660156 -7.859375 24.078125 -6.6875 28.359375 -6.6875 C 32.921875 -6.6875 36.410156 -7.875 38.828125 -10.25 C 41.242188 -12.632812 42.453125 -16.054688 42.453125 -20.515625 C 42.453125 -24.828125 41.125 -28.140625 38.46875 -30.453125 C 35.8125 -32.765625 31.984375 -33.957031 26.984375 -34.03125 L 19.890625 -34.03125 Z M 19.890625 -41.734375 "/></g></g></g><g fill="#ff2a84" fill-opacity="1"><g transform="translate(250.807739, 287.448615)"><g><path d="M 35.859375 -30.046875 L 18.421875 -30.046875 L 18.421875 0 L 8.578125 0 L 8.578125 -74.28125 L 33.15625 -74.28125 C 41.53125 -74.28125 47.96875 -72.375 52.46875 -68.5625 C 56.976562 -64.757812 59.234375 -59.21875 59.234375 -51.9375 C 59.234375 -47.3125 57.984375 -43.28125 55.484375 -39.84375 C 52.984375 -36.40625 49.503906 -33.835938 45.046875 -32.140625 L 62.5 -0.609375 L 62.5 0 L 51.984375 0 Z M 18.421875 -38.0625 L 33.46875 -38.0625 C 38.332031 -38.0625 42.203125 -39.316406 45.078125 -41.828125 C 47.953125 -44.347656 49.390625 -47.71875 49.390625 -51.9375 C 49.390625 -56.53125 48.019531 -60.050781 45.28125 -62.5 C 42.539062 -64.945312 38.585938 -66.1875 33.421875 -66.21875 L 18.421875 -66.21875 Z M 18.421875 -38.0625 "/></g></g></g><g fill="#ff2a84" fill-opacity="1"><g transform="translate(331.641111, 287.448615)"><g/></g></g></svg>